<svg width="101" height="91" viewBox="0 0 101 91" fill="none" xmlns="http://www.w3.org/2000/svg">
<path fill-rule="evenodd" clip-rule="evenodd" d="M76.7402 0C79.9303 0 82.5163 2.47995 82.5163 5.53913C82.5163 8.5983 79.9303 11.0783 76.7402 11.0783C53.4874 11.0783 46.3192 11.8211 39.0306 18.6736C34.8924 22.5642 31.308 27.7529 26.3265 33.5423C22.6431 37.8232 22.1689 39.6358 15.0305 39.7235C10.5847 44.9297 11.8338 50.8017 5.77615 50.8017C2.58607 50.8017 -7.62939e-06 48.3218 -7.62939e-06 45.2626C-7.62939e-06 42.2034 2.58607 39.7235 5.77615 39.7235C13.3959 39.7235 16.7074 27.8988 21.6429 21.3643C24.9612 16.9708 26.6648 14.7853 30.9432 10.7629C42.1383 0.237667 54.4439 0 76.7402 0ZM44.4176 39.7235C45.0539 39.1359 45.795 38.4457 46.4571 37.8232C45.7711 38.4681 45.0937 39.1028 44.4176 39.7235ZM28.9405 53.0057C25.9153 51.6422 24.0476 50.2895 14.4765 50.7973L42.0428 50.3269C44.6904 50.3506 45.7602 51.5793 46.4222 52.203C46.6162 52.3858 46.7967 52.5559 46.9522 52.7021C54.2408 59.5545 61.409 60.2974 84.6618 60.2974C87.8518 60.2974 90.4379 62.7774 90.4379 65.8365C90.4379 68.8957 87.8518 71.3757 84.6618 71.3757C62.3655 71.3757 50.0599 71.138 38.8648 60.6127C34.5864 56.5903 32.0556 54.4097 28.9405 53.0057ZM5.77615 39.7235C9.56322 39.7235 10.4846 46.8434 14.4765 50.7973C21.6429 50.6847 20.4968 49.7501 25.226 56.4304C28.433 60.9605 28.7994 62.238 30.9432 64.7735C35.254 69.8719 34.4957 69.0548 39.0306 72.3264C48.8108 79.3819 53.4874 79.9217 76.7402 79.9217C79.9303 79.9217 82.5163 82.4017 82.5163 85.4609C82.5163 88.52 79.9303 91 76.7402 91C54.4439 91 42.1383 90.7623 30.9432 80.2371C26.6648 76.2147 24.3395 73.524 21.6429 69.4474C18.2703 64.349 14.4286 55.0789 5.77615 50.8017C2.58607 50.8017 -7.62939e-06 48.3218 -7.62939e-06 45.2626C-7.62939e-06 42.2034 2.58607 39.7235 5.77615 39.7235Z" fill="url(#paint0_linear_2304_14951)"/>
<path d="M95.2239 50.8017L42.0428 50.3269L14.4765 50.7973C24.2598 50.6436 36.8023 47.1617 44.4176 39.7235H95.2239C98.4139 39.7235 101 42.2034 101 45.2626C101 48.3218 98.4139 50.8017 95.2239 50.8017Z" fill="url(#paint1_linear_2304_14951)"/>
<path d="M84.1667 19.1496C87.3567 19.1496 89.9428 21.6295 89.9428 24.6887C89.9428 27.7479 87.3567 30.2278 84.1667 30.2278C60.9139 30.2278 53.7457 30.9707 46.4571 37.8232C45.795 38.4457 45.0539 39.1359 44.4176 39.7235C36.8023 47.1617 24.2598 50.6436 14.4765 50.7973L5.77615 50.8017C2.58607 50.8017 -7.62939e-06 48.3218 -7.62939e-06 45.2626C-7.62939e-06 42.2034 2.58607 39.7235 5.77615 39.7235H18.679C26.2988 39.7235 25.4202 38.8831 28.4454 37.5196C31.5605 36.1156 34.0913 33.9349 38.3697 29.9125C49.5648 19.3873 61.8704 19.1496 84.1667 19.1496Z" fill="url(#paint2_linear_2304_14951)"/>
<defs>
<linearGradient id="paint0_linear_2304_14951" x1="93.7386" y1="24.5304" x2="0.307441" y2="48.6736" gradientUnits="userSpaceOnUse">
<stop stop-color="#319CFF"/>
<stop offset="1" stop-color="#BEE0FF"/>
</linearGradient>
<linearGradient id="paint1_linear_2304_14951" x1="104.466" y1="45.4209" x2="10.232" y2="45.4209" gradientUnits="userSpaceOnUse">
<stop stop-color="#CEE8FF"/>
<stop offset="1" stop-color="#319CFF"/>
</linearGradient>
<linearGradient id="paint2_linear_2304_14951" x1="93.7386" y1="24.5304" x2="0.307451" y2="48.6736" gradientUnits="userSpaceOnUse">
<stop stop-color="#319CFF"/>
<stop offset="1" stop-color="#BDDFFF"/>
</linearGradient>
</defs>
</svg>
