<svg width="20" height="20" viewBox="0 0 20 20" fill="none" xmlns="http://www.w3.org/2000/svg">
<path fill-rule="evenodd" clip-rule="evenodd" d="M5.29922 6.86925C4.04398 7.91689 3.16556 9.14798 2.72168 9.85083C2.69223 9.89746 2.67162 9.93013 2.65441 9.95848C2.64305 9.97718 2.63555 9.99013 2.63054 9.99915C2.63053 9.99949 2.63053 9.99982 2.63053 10.0002C2.63053 10.0005 2.63053 10.0008 2.63054 10.0012C2.63555 10.0102 2.64305 10.0231 2.65441 10.0418C2.67163 10.0702 2.69223 10.1029 2.72168 10.1495C3.16556 10.8524 4.04398 12.0834 5.29922 13.1311C6.55251 14.1771 8.13122 15.0002 10.0007 15.0002C11.8701 15.0002 13.4488 14.1771 14.7021 13.1311C15.9573 12.0834 16.8358 10.8523 17.2796 10.1495C17.3091 10.1029 17.3297 10.0702 17.3469 10.0418C17.3583 10.0231 17.3658 10.0102 17.3708 10.0012C17.3708 10.0008 17.3708 10.0005 17.3708 10.0002C17.3708 9.99983 17.3708 9.99949 17.3708 9.99915C17.3658 9.99013 17.3583 9.97719 17.3469 9.95848C17.3297 9.93013 17.3091 9.89746 17.2796 9.85083C16.8358 9.14798 15.9573 7.91689 14.7021 6.86925C13.4488 5.82325 11.8701 5.00016 10.0007 5.00016C8.13122 5.00016 6.55251 5.82325 5.29922 6.86925ZM4.23128 5.58969C5.67178 4.38743 7.61594 3.3335 10.0007 3.3335C12.3854 3.3335 14.3295 4.38743 15.77 5.58969C17.2086 6.79031 18.1949 8.17873 18.6888 8.96087C18.6953 8.97121 18.702 8.98175 18.7089 8.99253C18.8069 9.14681 18.9342 9.34713 18.9985 9.6278C19.0504 9.85443 19.0504 10.1459 18.9985 10.3725C18.9342 10.6532 18.8069 10.8535 18.7089 11.0078C18.702 11.0186 18.6953 11.0291 18.6888 11.0395C18.1949 11.8216 17.2086 13.21 15.77 14.4106C14.3295 15.6129 12.3854 16.6668 10.0007 16.6668C7.61594 16.6668 5.67178 15.6129 4.23128 14.4106C2.79274 13.21 1.80647 11.8216 1.31251 11.0395C1.30598 11.0291 1.29928 11.0186 1.29244 11.0078C1.19442 10.8535 1.06716 10.6532 1.00283 10.3725C0.950881 10.1459 0.950881 9.85443 1.00283 9.6278C1.06716 9.34712 1.19442 9.14681 1.29244 8.99252C1.29928 8.98175 1.30598 8.9712 1.31251 8.96087C1.80647 8.17873 2.79274 6.79031 4.23128 5.58969ZM10.0007 8.3335C9.08019 8.3335 8.334 9.07969 8.334 10.0002C8.334 10.9206 9.08019 11.6668 10.0007 11.6668C10.9211 11.6668 11.6673 10.9206 11.6673 10.0002C11.6673 9.07969 10.9211 8.3335 10.0007 8.3335ZM6.66733 10.0002C6.66733 8.15921 8.15971 6.66683 10.0007 6.66683C11.8416 6.66683 13.334 8.15921 13.334 10.0002C13.334 11.8411 11.8416 13.3335 10.0007 13.3335C8.15971 13.3335 6.66733 11.8411 6.66733 10.0002Z" fill="#9A9AA0"/>
</svg>
