<svg width="24" height="24" viewBox="0 0 24 24" fill="none" xmlns="http://www.w3.org/2000/svg">
<rect width="24" height="24" rx="6" fill="#319CFF"/>
<path fill-rule="evenodd" clip-rule="evenodd" d="M16.1569 5C16.6622 5 17.0719 5.40878 17.0719 5.91304C17.0719 6.4173 16.6622 6.82609 16.1569 6.82609C12.4733 6.82609 11.3377 6.94854 10.1831 8.07806C9.52751 8.71938 8.92188 9.29906 8.10817 9.68067C7.28022 10.069 6.32232 10.2174 4.99346 10.2174C4.48811 10.2174 4.07843 9.80861 4.07843 9.30435C4.07843 8.80009 4.48811 8.3913 4.99346 8.3913C6.20056 8.3913 6.8505 8.25277 7.32973 8.02802C7.82322 7.79659 8.22413 7.43714 8.90189 6.77411C10.6754 5.03918 12.6248 5 16.1569 5ZM11.0365 11.5478C11.1373 11.451 11.2547 11.3372 11.3595 11.2346C11.2509 11.3409 11.1436 11.4455 11.0365 11.5478ZM8.58464 13.7372C8.1054 13.5124 7.45546 13.3739 6.24837 13.3739L6.29331 13.3732L11.0365 13.2956C11.1193 13.3748 11.2491 13.5021 11.354 13.6049C11.3848 13.635 11.4133 13.6631 11.438 13.6872C12.5926 14.8167 13.7282 14.9391 17.4118 14.9391C17.9171 14.9391 18.3268 15.3479 18.3268 15.8522C18.3268 16.3564 17.9171 16.7652 17.4118 16.7652C13.8797 16.7652 11.9303 16.726 10.1568 14.9911C9.47903 14.3281 9.07812 13.9686 8.58464 13.7372ZM4.99346 14.7826C6.32232 14.7826 7.28022 14.931 8.10817 15.3193C8.92188 15.7009 9.52751 16.2806 10.1831 16.9219C11.3377 18.0515 12.4733 18.1739 16.1569 18.1739C16.6622 18.1739 17.0719 18.5827 17.0719 19.087C17.0719 19.5912 16.6622 20 16.1569 20C12.6248 20 10.6754 19.9608 8.90189 18.2259C8.22413 17.5629 7.82322 17.2034 7.32973 16.972C6.8505 16.7472 6.20056 16.6087 4.99346 16.6087C4.48811 16.6087 4.07843 16.1999 4.07843 15.6957C4.07843 15.1914 4.48811 14.7826 4.99346 14.7826Z" fill="white"/>
<path d="M19.085 13.3739L11.0365 13.2956L6.29331 13.3732C7.84314 13.3478 9.83006 12.7739 11.0365 11.5478H19.085C19.5903 11.5478 20 11.9566 20 12.4609C20 12.9651 19.5903 13.3739 19.085 13.3739Z" fill="white"/>
<path d="M17.3333 8.15653C17.8387 8.15653 18.2484 8.56531 18.2484 9.06957C18.2484 9.57383 17.8387 9.98261 17.3333 9.98261C13.6497 9.98261 12.5142 10.1051 11.3595 11.2346C11.2547 11.3372 11.1373 11.451 11.0365 11.5478C9.83006 12.7739 7.84314 13.3478 6.29331 13.3732L6.24837 13.3739H4.91503C4.40967 13.3739 4 12.9651 4 12.4609C4 11.9566 4.40967 11.5478 4.91503 11.5478H6.16993C7.37703 11.5478 8.02697 11.4093 8.50621 11.1845C8.99969 10.9531 9.4006 10.5937 10.0784 9.93063C11.8518 8.1957 13.8013 8.15653 17.3333 8.15653Z" fill="white"/>
</svg>
